<svg xmlns="http://www.w3.org/2000/svg" version="1.1" xmlns:xlink="http://www.w3.org/1999/xlink" xmlns:svgjs="http://svgjs.dev/svgjs" width="2000" height="1500" viewBox="0 0 2000 1500"><rect width="2000" height="1500" fill="#ffffff"></rect><g transform="matrix(0.75,0,0,0.75,249.090909090909,282.7536437246963)"><svg viewBox="0 0 396 247" data-background-color="#ffffff" preserveAspectRatio="xMidYMid meet" height="1247" width="2000" xmlns="http://www.w3.org/2000/svg" xmlns:xlink="http://www.w3.org/1999/xlink"><g id="tight-bounds" transform="matrix(1,0,0,1,0.2400000000000091,-0.09999999999999432)"><svg viewBox="0 0 395.52 247.2" height="247.2" width="395.52"><g><svg></svg></g><g><svg viewBox="0 0 395.52 247.2" height="247.2" width="395.52"><g transform="matrix(1,0,0,1,141.08740645161288,47.215199999999996)"><svg viewBox="0 0 113.3451870967742 152.7696" height="152.7696" width="113.3451870967742"><g><svg viewBox="0 0 113.3451870967742 152.7696" height="152.7696" width="113.3451870967742"><g><svg viewBox="0 0 113.3451870967742 152.7696" height="152.7696" width="113.3451870967742"><g><svg viewBox="0 0 113.3451870967742 152.7696" height="152.7696" width="113.3451870967742"><g id="textblocktransform"><svg viewBox="0 0 113.3451870967742 152.7696" height="152.7696" width="113.3451870967742" id="textblock"><g><svg viewBox="0 0 113.3451870967742 152.7696" height="152.7696" width="113.3451870967742"><g transform="matrix(1,0,0,1,0,0)"><svg width="113.3451870967742" viewBox="4 -34.099998474121094 25.299999237060547 34.099998474121094" height="152.7696" data-palette-color="#2257bf"><path d="M4 0L4-34.1 12.45-34.1Q17.7-34.1 21.5-32.08 25.3-30.05 27.3-26.2 29.3-22.35 29.3-17L29.3-17Q29.3-9 24.85-4.5 20.4 0 12.45 0L12.45 0 4 0ZM7.75-3.4L12.35-3.4Q18.45-3.4 21.9-6.75 25.35-10.1 25.35-17L25.35-17Q25.35-23.95 21.9-27.3 18.45-30.65 12.35-30.65L12.35-30.65 7.75-30.65 7.75-3.4Z" opacity="1" transform="matrix(1,0,0,1,0,0)" fill="#2257bf" class="undefined-text-0" data-fill-palette-color="primary" id="text-0"></path></svg></g></svg></g></svg></g></svg></g></svg></g></svg></g></svg></g><path d="M72.131 41.215L72.131 0 319.331 0 319.331 247.2 72.131 247.2 72.131 205.985 85.908 205.985 85.908 233.423 305.554 233.423 305.554 13.777 85.908 13.777 85.908 41.215Z" fill="#2257bf" stroke="transparent" data-fill-palette-color="primary"></path></svg></g><defs></defs></svg><rect width="395.52" height="247.2" fill="none" stroke="none" visibility="hidden"></rect></g></svg></g></svg>